{"title":"Ek The Tiger 2012 720p BluRay nHD x264 (NhaNc3) - Hindi","uid":7733005,"size":3037065891,"categoryP":"video","categoryS":"hd___movies","magnet":"?xt=urn:btih:40cfaa531d650b97cdd773faf4fbcd3640eaf5af&amp;dn=Ek+The+Tiger+2012+720p+BluRay+nHD+x264+%28NhaNc3%29+-+Hindi&amp;tr=udp%3A%2F%2Ftracker.openbittorrent.com%3A80&amp;tr=udp%3A%2F%2Fopen.demonii.com%3A1337&amp;tr=udp%3A%2F%2Ftracker.coppersurfer.tk%3A6969&amp;tr=udp%3A%2F%2Fexodus.desync.com%3A6969","seeders":1,"leechers":1,"uploader":"SJonam","files":1,"time":1350348159,"description":"[CENTER][IMG]http://desibbrg.org/images/66952052392581364616.gif[/IMG]\n &lt;a href=&quot;\nhttp://desibbrg.org/images/78111455057018954650.jpg&quot; rel=&quot;nofollow&quot; target=&quot;_NEW&quot;&gt;\nhttp://desibbrg.org/images/78111455057018954650.jpg&lt;/a&gt;\n &lt;a href=&quot;\nhttp://desibbrg.org/images/56434656599108269950.jpg&quot; rel=&quot;nofollow&quot; target=&quot;_NEW&quot;&gt;\nhttp://desibbrg.org/images/56434656599108269950.jpg&lt;/a&gt;\n &lt;a href=&quot;\nhttp://desibbrg.org/images/58726212422846752148.jpg&quot; rel=&quot;nofollow&quot; target=&quot;_NEW&quot;&gt;\nhttp://desibbrg.org/images/58726212422846752148.jpg&lt;/a&gt;\n\nMedia Info - \nGeneral\nUnique ID                        : 219713029162294270761521123843794476753 (0xA54B30B12E5BCED083D6DEA2545F1ED1)\n\nFormat                           : Matroska\nFile size                        : 2.83 GiB\nDuration                         : 2h 13mn\nOverall bit rate                 : 3 045 Kbps\nMovie name                       : Ek Tha Tiger (2012)\nEncoded date                     : UTC 2012-10-11 20:55:08\nWriting application              : mkvmerge v4.8.0 ('I Got The...') built on May 24 2011 03:12:58\nWriting library                  : libebml v1.2.0 + libmatroska v1.1.0\n\nVideo\nID                               : 1\nFormat                           : AVC\nFormat/Info                      : Advanced Video Codec\nFormat profile                   : &lt;a class=&quot;__cf_email__&quot; href=&quot;/cdn-cgi/l/email-protection&quot; data-cfemail=&quot;5810313f3018146c7669&quot;&gt;[email&amp;#160;protected]&lt;/a&gt;&lt;script cf-hash='f9e31' type=&quot;text/javascript&quot;&gt;\n/* &lt;![CDATA[ */!function(){try{var t=&quot;currentScript&quot;in document?document.currentScript:function(){for(var t=document.getElementsByTagName(&quot;script&quot;),e=t.length;e--;)if(t[e].getAttribute(&quot;cf-hash&quot;))return t[e]}();if(t&amp;&amp;t.previousSibling){var e,r,n,i,c=t.previousSibling,a=c.getAttribute(&quot;data-cfemail&quot;);if(a){for(e=&quot;&quot;,r=parseInt(a.substr(0,2),16),n=2;a.length-n;n+=2)i=parseInt(a.substr(n,2),16)^r,e+=String.fromCharCode(i);e=document.createTextNode(e),c.parentNode.replaceChild(e,c)}}}catch(u){}}();/* ]]&gt; */&lt;/script&gt;\nFormat settings, CABAC           : Yes\nFormat settings, ReFrames        : 8 frames\nMuxing mode                      : Header stripping\nCodec ID                         : V_MPEG4/ISO/AVC\nDuration                         : 2h 13mn\nBit rate                         : 2 626 Kbps\nWidth                            : 1 280 pixels\nHeight                           : 544 pixels\nDisplay aspect ratio             : 2.35:1\nFrame rate                       : 24.000 fps\nColor space                      : YUV\nChroma subsampling               : 4:2:0\nBit depth                        : 8 bits\nScan type                        : Progressive\nBits/(Pixel*Frame)               : 0.157\nStream size                      : 2.42 GiB (85%)\nWriting library                  : x264 core 125 r2208 d9d2288\n\nLanguage                         : English\n\nAudio\nID                               : 2\nFormat                           : AC-3\nFormat/Info                      : Audio Coding 3\nMode extension                   : CM (complete main)\nMuxing mode                      : Header stripping\nCodec ID                         : A_AC3\nDuration                         : 2h 13mn\nBit rate mode                    : Constant\nBit rate                         : 384 Kbps\nChannel(s)                       : 6 channels\nChannel positions                : Front: L C R, Side: L R, LFE\nSampling rate                    : 48.0 KHz\nBit depth                        : 16 bits\nCompression mode                 : Lossy\nStream size                      : 365 MiB (13%)\nLanguage                         : Hindi\n\nRipper : NhaNc3\n\nSeeding 24x7... Extreme Seeding...\n\n\nEnjoy!\n","torrent":{"xt":"urn:btih:40cfaa531d650b97cdd773faf4fbcd3640eaf5af","amp;dn":"Ek+The+Tiger+2012+720p+BluRay+nHD+x264+%28NhaNc3%29+-+Hindi","amp;tr":["udp%3A%2F%2Ftracker.openbittorrent.com%3A80","udp%3A%2F%2Fopen.demonii.com%3A1337","udp%3A%2F%2Ftracker.coppersurfer.tk%3A6969","udp%3A%2F%2Fexodus.desync.com%3A6969"],"infoHash":"40cfaa531d650b97cdd773faf4fbcd3640eaf5af","infoHashBuffer":{"type":"Buffer","data":[64,207,170,83,29,101,11,151,205,215,115,250,244,251,205,54,64,234,245,175]},"announce":[],"urlList":[]}}